<?xml version="1.0" encoding="UTF-8"?>
<svg width="284px" height="91px" viewBox="0 0 284 91" version="1.1" xmlns="http://www.w3.org/2000/svg" xmlns:xlink="http://www.w3.org/1999/xlink">
    <!-- Generator: Sketch 52.5 (67469) - http://www.bohemiancoding.com/sketch -->
    <title>Graph</title>
    <desc>Created with Sketch.</desc>
    <defs>
        <path d="M2,23 C3.1045695,23 4,23.8954305 4,25 L4,81 C4,82.1045695 3.1045695,83 2,83 C0.8954305,83 1.3527075e-16,82.1045695 0,81 L0,25 C-1.3527075e-16,23.8954305 0.8954305,23 2,23 Z M10,0 C11.1045695,-2.02906125e-16 12,0.8954305 12,2 L12,81 C12,82.1045695 11.1045695,83 10,83 C8.8954305,83 8,82.1045695 8,81 L8,2 C8,0.8954305 8.8954305,2.02906125e-16 10,0 Z M18,14 C19.1045695,14 20,14.8954305 20,16 L20,81 C20,82.1045695 19.1045695,83 18,83 C16.8954305,83 16,82.1045695 16,81 L16,16 C16,14.8954305 16.8954305,14 18,14 Z M26,40 C27.1045695,40 28,40.8954305 28,42 L28,81 C28,82.1045695 27.1045695,83 26,83 C24.8954305,83 24,82.1045695 24,81 L24,42 C24,40.8954305 24.8954305,40 26,40 Z M34,48 C35.1045695,48 36,48.8954305 36,50 L36,81 C36,82.1045695 35.1045695,83 34,83 C32.8954305,83 32,82.1045695 32,81 L32,50 C32,48.8954305 32.8954305,48 34,48 Z M42,29 C43.1045695,29 44,29.8954305 44,31 L44,81 C44,82.1045695 43.1045695,83 42,83 C40.8954305,83 40,82.1045695 40,81 L40,31 C40,29.8954305 40.8954305,29 42,29 Z M50,12 C51.1045695,12 52,12.8954305 52,14 L52,81 C52,82.1045695 51.1045695,83 50,83 C48.8954305,83 48,82.1045695 48,81 L48,14 C48,12.8954305 48.8954305,12 50,12 Z M58,30 C59.1045695,30 60,30.8954305 60,32 L60,81 C60,82.1045695 59.1045695,83 58,83 C56.8954305,83 56,82.1045695 56,81 L56,32 C56,30.8954305 56.8954305,30 58,30 Z M66,39 C67.1045695,39 68,39.8954305 68,41 L68,81 C68,82.1045695 67.1045695,83 66,83 C64.8954305,83 64,82.1045695 64,81 L64,41 C64,39.8954305 64.8954305,39 66,39 Z M74,44 C75.1045695,44 76,44.8954305 76,46 L76,81 C76,82.1045695 75.1045695,83 74,83 C72.8954305,83 72,82.1045695 72,81 L72,46 C72,44.8954305 72.8954305,44 74,44 Z M82,50 C83.1045695,50 84,50.8954305 84,52 L84,81 C84,82.1045695 83.1045695,83 82,83 C80.8954305,83 80,82.1045695 80,81 L80,52 C80,50.8954305 80.8954305,50 82,50 Z M90,34 C91.1045695,34 92,34.8954305 92,36 L92,81 C92,82.1045695 91.1045695,83 90,83 C88.8954305,83 88,82.1045695 88,81 L88,36 C88,34.8954305 88.8954305,34 90,34 Z M98,17 C99.1045695,17 100,17.8954305 100,19 L100,81 C100,82.1045695 99.1045695,83 98,83 C96.8954305,83 96,82.1045695 96,81 L96,19 C96,17.8954305 96.8954305,17 98,17 Z M106,11 C107.104569,11 108,11.8954305 108,13 L108,81 C108,82.1045695 107.104569,83 106,83 C104.895431,83 104,82.1045695 104,81 L104,13 C104,11.8954305 104.895431,11 106,11 Z M114,38 C115.104569,38 116,38.8954305 116,40 L116,81 C116,82.1045695 115.104569,83 114,83 C112.895431,83 112,82.1045695 112,81 L112,40 C112,38.8954305 112.895431,38 114,38 Z M122,23 C123.104569,23 124,23.8954305 124,25 L124,81 C124,82.1045695 123.104569,83 122,83 C120.895431,83 120,82.1045695 120,81 L120,25 C120,23.8954305 120.895431,23 122,23 Z M130,17 C131.104569,17 132,17.8954305 132,19 L132,81 C132,82.1045695 131.104569,83 130,83 C128.895431,83 128,82.1045695 128,81 L128,19 C128,17.8954305 128.895431,17 130,17 Z M138,38 C139.104569,38 140,38.8954305 140,40 L140,81 C140,82.1045695 139.104569,83 138,83 C136.895431,83 136,82.1045695 136,81 L136,40 C136,38.8954305 136.895431,38 138,38 Z M146,9 C147.104569,9 148,9.8954305 148,11 L148,81 C148,82.1045695 147.104569,83 146,83 C144.895431,83 144,82.1045695 144,81 L144,11 C144,9.8954305 144.895431,9 146,9 Z M154,33 C155.104569,33 156,33.8954305 156,35 L156,81 C156,82.1045695 155.104569,83 154,83 C152.895431,83 152,82.1045695 152,81 L152,35 C152,33.8954305 152.895431,33 154,33 Z M162,53 C163.104569,53 164,53.8954305 164,55 L164,81 C164,82.1045695 163.104569,83 162,83 C160.895431,83 160,82.1045695 160,81 L160,55 C160,53.8954305 160.895431,53 162,53 Z M170,23 C171.104569,23 172,23.8954305 172,25 L172,81 C172,82.1045695 171.104569,83 170,83 C168.895431,83 168,82.1045695 168,81 L168,25 C168,23.8954305 168.895431,23 170,23 Z M178,40 C179.104569,40 180,40.8954305 180,42 L180,81 C180,82.1045695 179.104569,83 178,83 C176.895431,83 176,82.1045695 176,81 L176,42 C176,40.8954305 176.895431,40 178,40 Z M186,47 C187.104569,47 188,47.8954305 188,49 L188,81 C188,82.1045695 187.104569,83 186,83 C184.895431,83 184,82.1045695 184,81 L184,49 C184,47.8954305 184.895431,47 186,47 Z M194,28 C195.104569,28 196,28.8954305 196,30 L196,81 C196,82.1045695 195.104569,83 194,83 C192.895431,83 192,82.1045695 192,81 L192,30 C192,28.8954305 192.895431,28 194,28 Z M202,17 C203.104569,17 204,17.8954305 204,19 L204,81 C204,82.1045695 203.104569,83 202,83 C200.895431,83 200,82.1045695 200,81 L200,19 C200,17.8954305 200.895431,17 202,17 Z M210,36 C211.104569,36 212,36.8954305 212,38 L212,81 C212,82.1045695 211.104569,83 210,83 C208.895431,83 208,82.1045695 208,81 L208,38 C208,36.8954305 208.895431,36 210,36 Z M218,20 C219.104569,20 220,20.8954305 220,22 L220,81 C220,82.1045695 219.104569,83 218,83 C216.895431,83 216,82.1045695 216,81 L216,22 C216,20.8954305 216.895431,20 218,20 Z M226,13 C227.104569,13 228,13.8954305 228,15 L228,81 C228,82.1045695 227.104569,83 226,83 C224.895431,83 224,82.1045695 224,81 L224,15 C224,13.8954305 224.895431,13 226,13 Z M234,32 C235.104569,32 236,32.8954305 236,34 L236,81 C236,82.1045695 235.104569,83 234,83 C232.895431,83 232,82.1045695 232,81 L232,34 C232,32.8954305 232.895431,32 234,32 Z M242,38 C243.104569,38 244,38.8954305 244,40 L244,81 C244,82.1045695 243.104569,83 242,83 C240.895431,83 240,82.1045695 240,81 L240,40 C240,38.8954305 240.895431,38 242,38 Z M250,28 C251.104569,28 252,28.8954305 252,30 L252,81 C252,82.1045695 251.104569,83 250,83 C248.895431,83 248,82.1045695 248,81 L248,30 C248,28.8954305 248.895431,28 250,28 Z M258,23 C259.104569,23 260,23.8954305 260,25 L260,81 C260,82.1045695 259.104569,83 258,83 C256.895431,83 256,82.1045695 256,81 L256,25 C256,23.8954305 256.895431,23 258,23 Z M266,17 C267.104569,17 268,17.8954305 268,19 L268,81 C268,82.1045695 267.104569,83 266,83 C264.895431,83 264,82.1045695 264,81 L264,19 C264,17.8954305 264.895431,17 266,17 Z M274,36 C275.104569,36 276,36.8954305 276,38 L276,81 C276,82.1045695 275.104569,83 274,83 C272.895431,83 272,82.1045695 272,81 L272,38 C272,36.8954305 272.895431,36 274,36 Z" id="path-1"></path>
        <filter x="-2.5%" y="-6.0%" width="105.1%" height="116.9%" filterUnits="objectBoundingBox" id="filter-2">
            <feOffset dx="0" dy="2" in="SourceAlpha" result="shadowOffsetOuter1"></feOffset>
            <feGaussianBlur stdDeviation="2" in="shadowOffsetOuter1" result="shadowBlurOuter1"></feGaussianBlur>
            <feComposite in="shadowBlurOuter1" in2="SourceAlpha" operator="out" result="shadowBlurOuter1"></feComposite>
            <feColorMatrix values="0 0 0 0 0   0 0 0 0 0   0 0 0 0 0  0 0 0 0.15 0" type="matrix" in="shadowBlurOuter1"></feColorMatrix>
        </filter>
    </defs>
    <g id="Page-1" stroke="none" stroke-width="1" fill="none" fill-rule="evenodd">
        <g id="Dark---Dashboard---2" transform="translate(-1128.000000, -192.000000)">
            <g id="Right" transform="translate(1102.000000, 0.000000)">
                <g id="My-Card" transform="translate(0.000000, 108.000000)">
                    <g id="Graph" transform="translate(30.000000, 86.000000)">
                        <g id="Combined-Shape">
                            <use fill="black" fill-opacity="1" filter="url(#filter-2)" xlink:href="#path-1"></use>
                            <use fill-opacity="0.7" fill="#FFFFFF" fill-rule="evenodd" style="mix-blend-mode: soft-light;" xlink:href="#path-1"></use>
                        </g>
                    </g>
                </g>
            </g>
        </g>
    </g>
</svg>