<svg width="64" height="53" viewBox="0 0 64 53" fill="none" xmlns="http://www.w3.org/2000/svg">
<mask id="path-1-inside-1" fill="white">
<path fill-rule="evenodd" clip-rule="evenodd" d="M10.5447 3H21.4914H10.5447ZM26.57 3H37.4681H26.57ZM42.5835 3H53.4864H42.5835ZM58.6815 3H62.9996C63.5521 3 64 3.44453 64 4.00255V49.9975C64 50.5511 63.5571 51 62.9947 51H1.00529C0.450082 51 0 50.5555 0 49.9975V4.00255C0 3.44886 0.452477 3 1.00129 3H5.52919"/>
</mask>
<path d="M10.5447 4H21.4914V2H10.5447V4ZM26.57 4H37.4681V2H26.57V4ZM42.5835 4H53.4864V2H42.5835V4ZM58.6815 4H62.9996V2H58.6815V4ZM62.9996 4C63.0015 4 63.0021 4.00017 63.0019 4.00013C63.0018 4.0001 63.0014 3.99999 63.001 3.99981C63.0002 3.99947 63 3.99923 63.0002 3.99941C63.0003 3.99956 63.0001 3.99942 62.9998 3.99876C62.9997 3.99841 62.9997 3.99824 62.9997 3.99845C62.9997 3.9986 63 3.99985 63 4.00255H65C65 2.89149 64.1036 2 62.9996 2V4ZM63 4.00255V49.9975H65V4.00255H63ZM63 49.9975C63 49.9999 62.9998 50.001 62.9997 50.0011C62.9997 50.0013 62.9997 50.0012 62.9998 50.0009C63.0001 50.0004 63.0003 50.0001 63.0004 50C63.0005 50 63.0008 49.9997 63.0013 49.9994C63.0016 49.9993 63.0015 49.9994 63.0009 49.9995C63.0003 49.9997 62.9983 50 62.9947 50V52C64.1115 52 65 51.1013 65 49.9975H63ZM62.9947 50H1.00529V52H62.9947V50ZM1.00529 50C1.00276 50 1.00145 49.9998 1.00106 49.9997C1.00061 49.9996 1.00045 49.9995 1.00043 49.9995C1.00031 49.9995 0.999928 49.9993 0.999526 49.9989C0.99915 49.9985 0.99944 49.9986 0.99986 49.9996C0.999956 49.9998 1.00004 50.0001 1.0001 50.0003C1.00013 50.0004 1.00015 50.0005 1.00017 50.0005C1.00019 50.0006 1.00019 50.0006 1.00019 50.0006C1.00019 50.0006 1.00018 50.0006 1.00017 50.0005C1.00015 50.0004 1.00013 50.0002 1.00011 50C1.00006 49.9995 1 49.9987 1 49.9975H-1C-1 51.1131 -0.0968085 52 1.00529 52V50ZM1 49.9975V4.00255H-1V49.9975H1ZM1 4.00255C1 4.00161 1.00008 4.00163 0.999948 4.00226C0.999832 4.00283 0.999666 4.00331 0.999553 4.00358C0.999401 4.00393 0.999811 4.00288 1.00137 4.00132C1.00295 3.99974 1.0041 3.99927 1.00382 3.99939C1.00357 3.99949 1.00303 3.99969 1.00226 3.99984C1.00144 4.00001 1.00101 4 1.00129 4V2C-0.0982706 2 -1 2.89504 -1 4.00255H1ZM1.00129 4H5.52919V2H1.00129V4Z" fill="black" mask="url(#path-1-inside-1)"/>
<g clip-path="url(#clip0)">
<path d="M12.9876 28L11 26" stroke="black" stroke-linecap="round"/>
<path d="M11 28L12.9876 26" stroke="black" stroke-linecap="round"/>
</g>
<g clip-path="url(#clip1)">
<path d="M52.9876 28L51 26" stroke="black" stroke-linecap="round"/>
<path d="M51 28L52.9876 26" stroke="black" stroke-linecap="round"/>
</g>
<rect x="2.5" y="50.5" width="59" height="2" stroke="black"/>
<rect x="5.5" y="0.5" width="5" height="7" rx="0.5" stroke="black"/>
<rect x="21.5" y="0.5" width="5" height="7" rx="0.5" stroke="black"/>
<rect x="37.5" y="0.5" width="5" height="7" rx="0.5" stroke="black"/>
<rect x="53.5" y="0.5" width="5" height="7" rx="0.5" stroke="black"/>
<path d="M1 16H63" stroke="black" stroke-linecap="round"/>
<path d="M22 39H42" stroke="black" stroke-linecap="round"/>
<path d="M1 14H63" stroke="black" stroke-linecap="round" stroke-dasharray="1 3"/>
<defs>
<clipPath id="clip0">
<rect width="2" height="2" fill="white" transform="translate(11 26)"/>
</clipPath>
<clipPath id="clip1">
<rect width="2" height="2" fill="white" transform="translate(51 26)"/>
</clipPath>
</defs>
</svg>
